# xmcd
#
# Track frame offsets: 
#        150
#        12972
#        24594
#        35299
#        47087
#        59567
#        72189
#        84532
#        94357
#        108887
#        120259
#        131614
#        145304
#        157512
#        167219
#        185089
#        198715
#
# Disc length: 2949 seconds
#
# Revision: 0
# Processed by: cddbd v1.5.2PL0 Copyright (c) Steve Scherf et al.
# Submitted via: ExactAudioCopyFreeDBPlugin 1.0
#
DISCID=e60b8311
DTITLE=Luiz Gonzaga - Seleção Essencial
DYEAR=2014
DGENRE=MPB
TTITLE0=Qui nem jiló
TTITLE1=O xote das meninas
TTITLE2=Cintura fina
TTITLE3=Assum preto
TTITLE4=Baião
TTITLE5=Asa branca
TTITLE6=A volta da asa branca
TTITLE7=Pagode russo
TTITLE8=Vem morena
TTITLE9=Juazeiro
TTITLE10=ABC do sertão
TTITLE11=Tá bom demais
TTITLE12=A vida do viajante
TTITLE13=Treze de dezembro
TTITLE14=Forró nº 1 (com Gal Costa)
TTITLE15=Sebastiana (com Guadalupe)
TTITLE16=Respeita Januário - Riacho do navio - Forró no escuro(com Fag
TTITLE16=ner)
EXTD=
EXTT0=
EXTT1=
EXTT2=
EXTT3=
EXTT4=
EXTT5=
EXTT6=
EXTT7=
EXTT8=
EXTT9=
EXTT10=
EXTT11=
EXTT12=
EXTT13=
EXTT14=
EXTT15=
EXTT16=
PLAYORDER=
